#N canvas 789 81 650 818 10;
#X obj 322 22 vsl 15 128 0 1 0 0 empty empty empty 0 -9 0 10 -262144
-1 -1 10100 1;
#X obj 277 409 vu 15 120 empty empty -1 -8 0 10 -66577 -1 1 0;
#X obj 89 152 adc~;
#X floatatom 175 241 5 0 0 0 - - -, f 5;
#X obj 101 310 *~;
#X obj 36 26 tgl 15 0 empty empty empty 17 7 0 10 -262144 -1 -1 1 1
;
#X msg 37 57 \; pd dsp \$1;
#X obj 93 495 dac~ 1 2;
#X obj 163 350 env~;
#X obj 172 380 - 100;
#X connect 0 0 3 0;
#X connect 2 0 4 0;
#X connect 3 0 4 1;
#X connect 4 0 8 0;
#X connect 4 0 7 0;
#X connect 4 0 7 1;
#X connect 5 0 6 0;
#X connect 8 0 9 0;
#X connect 9 0 1 0;
